<?xml version="1.0" encoding="utf-8"?>
<!-- Generator: Adobe Illustrator 24.0.3, SVG Export Plug-In . SVG Version: 6.00 Build 0)  -->
<svg version="1.1" id="Layer_1" xmlns="http://www.w3.org/2000/svg" xmlns:xlink="http://www.w3.org/1999/xlink" x="0px" y="0px"
	 viewBox="0 0 274.3 102.5" style="enable-background:new 0 0 274.3 102.5;" xml:space="preserve">
<style type="text/css">
	.st0{fill:#B29A5C;}
	.st1{fill:#FFFFFF;}
</style>
<g>
	<g>
		<path class="st0" d="M78.7,61.1V47.5L72,56.2l-6.7-8.8v13.6h-2.6V40.1L72,52.3l9.3-12.2v20.9H78.7z"/>
		<path class="st0" d="M94.8,46l-7.1,15.1h-2.8l9.9-20.9l9.9,20.9h-2.8L94.8,46z"/>
		<path class="st0" d="M118.1,61.5c-6.3,0-11-4.5-11-10.6c0-6.1,4.6-10.6,11-10.6c3.1,0,5.7,1,7.6,2.8l-1.7,1.9
			c-1.5-1.4-3.5-2.2-6-2.2c-4.5,0-7.7,2.7-8.2,6.9h16v8.8C123.9,60.5,121.2,61.5,118.1,61.5z M123.3,57.3v-5.1h-13.5
			c0.6,4.1,3.8,6.7,8.2,6.7C120.1,59,121.9,58.4,123.3,57.3z"/>
		<path class="st0" d="M131.5,61.1v-2.5h3.9v-4c-1.5-0.5-2.6-1.8-2.6-3.6s1.1-3.1,2.6-3.6v-4h-3.9v-2.5h10.3v2.5H138v4
			c1.5,0.5,2.6,1.8,2.6,3.6c0,1.8-1.1,3.1-2.6,3.6v4h3.9v2.5H131.5z M135.2,50.9c0,0.9,0.6,1.4,1.4,1.4c0.9,0,1.4-0.6,1.4-1.4
			s-0.6-1.4-1.4-1.4C135.8,49.5,135.2,50.1,135.2,50.9z"/>
		<path class="st0" d="M47.1,61.1v-2.5H51V43.3h-3.9v-2.5h10.3v2.5h-3.9v15.3h3.9v2.5H47.1z"/>
		<path class="st0" d="M216.9,61.1v-2.5h3.9V43.3h-3.9v-2.5h10.3v2.5h-3.9v15.3h3.9v2.5H216.9z"/>
		<path class="st0" d="M153.2,51.3v9.7h-2.6V40.2l14,10.2v-9.7h2.6v20.9L153.2,51.3z M164.7,53.5l-11.5-8.3v3.1l11.5,8.3V53.5z"/>
		<path class="st0" d="M183.4,46l-7.1,15.1h-2.8l9.9-20.9l9.9,20.9h-2.8L183.4,46z"/>
		<path class="st0" d="M204.2,48.8v12.3h-2.6V48.8h-6.4v-2.5h6.4v-3.1h-6.4v-2.5h15.4v2.5h-6.4v3.1h6.4v2.5H204.2z"/>
	</g>
	<g>
		<g>
			<g>
				<polygon class="st0" points="240.7,28.7 251.1,28.7 245.9,33.9 				"/>
				<polygon class="st0" points="243.5,34.4 243.9,34 242.5,32.6 242.1,33 242.1,33.8 242.7,34.4 				"/>
				<polygon class="st0" points="237.1,28.8 237.1,34.4 246.4,43.6 254.8,35.2 254.8,28.7 253.2,28.7 249.9,32 250.6,32.6 
					250.6,34.2 249.5,35.3 248,35.3 247.3,34.6 245.9,36 244.5,34.6 243.8,35.3 242.3,35.3 241.2,34.2 241.2,32.6 241.9,32 
					238.6,28.8 				"/>
				<polygon class="st0" points="249.1,34.4 249.7,33.8 249.7,33 249.3,32.6 247.9,34 248.3,34.4 				"/>
				<polygon class="st0" points="237.1,37 237.1,45 243.3,50.8 243.2,66.2 254.7,54.6 254.8,37.8 246.4,46.3 				"/>
				<polygon class="st0" points="237,48 237,72.5 239.3,70.2 239.3,55.1 240.2,56 240.2,69.2 241.5,68 241.5,52.1 				"/>
			</g>
			<polygon class="st0" points="257.8,28.7 254.8,31.7 254.8,28.7 			"/>
			<polygon class="st0" points="234,28.8 237.1,31.7 237.1,28.8 			"/>
		</g>
		<g>
			<g>
				<polygon class="st0" points="28.4,33.9 23.3,28.7 33.6,28.7 				"/>
				<polygon class="st0" points="30.9,34.4 30.5,34 31.8,32.6 32.2,33 32.2,33.8 31.7,34.4 				"/>
				<polygon class="st0" points="37.3,28.8 37.3,34.4 28,43.6 19.6,35.2 19.6,28.7 21.1,28.7 24.4,32 23.8,32.6 23.8,34.2 
					24.9,35.3 26.4,35.3 27,34.6 28.4,36 29.8,34.6 30.5,35.3 32,35.3 33.1,34.2 33.1,32.6 32.5,32 35.7,28.8 				"/>
				<polygon class="st0" points="26,34.4 26.4,34 25,32.6 24.7,33 24.7,33.8 25.2,34.4 				"/>
				<polygon class="st0" points="28,46.3 19.6,37.8 19.6,54.6 31.1,66.2 31,50.8 37.3,45 37.3,37 				"/>
				<polygon class="st0" points="32.8,52.1 32.8,68 34.1,69.2 34.1,56 35,55.1 35,70.2 37.3,72.5 37.3,48 				"/>
			</g>
			<polygon class="st0" points="16.5,28.7 19.6,31.7 19.6,28.7 			"/>
			<polygon class="st0" points="40.3,28.8 37.3,31.7 37.3,28.8 			"/>
		</g>
	</g>
	<g>
		<rect x="49" y="31" class="st0" width="176.4" height="1.3"/>
		<rect x="46.5" y="27.6" class="st0" width="181.3" height="1.3"/>
		<polygon class="st0" points="225.4,68.4 225.4,69.7 153.5,69.7 137.2,86.6 120.8,69.7 49,69.7 49,68.4 122,68.4 137.2,84 
			152.3,68.4 		"/>
		<rect x="44.1" y="72.1" class="st0" width="186.2" height="1.3"/>
		<polygon class="st0" points="209.6,16.1 194,31 80.3,31 64.8,16.1 		"/>
		<g>
			<path class="st1" d="M92.4,27.1v-3.5c0-0.8,0.4-1.2,1.2-1.2h2.1c0.8,0,1.2,0.4,1.2,1.2v3.5c0,0.8-0.4,1.2-1.2,1.2h-2.1
				C92.8,28.2,92.4,27.9,92.4,27.1z M95.5,27.1c0.1,0,0.2,0,0.2-0.2v-3.3c0-0.1,0-0.2-0.2-0.2h-1.7c-0.1,0-0.2,0-0.2,0.2V27
				c0,0.1,0,0.2,0.2,0.2H95.5z"/>
			<path class="st1" d="M105.3,28.2h-1.3l-1-2h-1v2H101v-5.8h3c0.8,0,1.2,0.4,1.2,1.2V25c0,0.7-0.3,1-0.8,1.1L105.3,28.2z
				 M103.8,25.1c0.1,0,0.2,0,0.2-0.2v-1.3c0-0.1,0-0.2-0.2-0.2h-1.7v1.6H103.8z"/>
			<path class="st1" d="M109.3,22.5h3.2c0.8,0,1.2,0.4,1.2,1.2v3.5c0,0.8-0.4,1.2-1.2,1.2h-3.2V22.5z M112.3,27.1
				c0.1,0,0.2,0,0.2-0.2v-3.3c0-0.1,0-0.2-0.2-0.2h-1.8v3.6H112.3z"/>
			<path class="st1" d="M117.8,22.5h3.9v1.1h-2.7v1.2h2.2v1.1h-2.2v1.3h2.7v1.1h-3.9V22.5z"/>
			<path class="st1" d="M130,28.2h-1.3l-1-2h-1v2h-1.2v-5.8h3c0.8,0,1.2,0.4,1.2,1.2V25c0,0.7-0.3,1-0.8,1.1L130,28.2z M128.5,25.1
				c0.1,0,0.2,0,0.2-0.2v-1.3c0-0.1,0-0.2-0.2-0.2h-1.7v1.6H128.5z"/>
			<path class="st1" d="M138.8,27.1v-3.5c0-0.8,0.4-1.2,1.2-1.2h2.1c0.8,0,1.2,0.4,1.2,1.2v3.5c0,0.8-0.4,1.2-1.2,1.2H140
				C139.2,28.2,138.8,27.9,138.8,27.1z M141.9,27.1c0.1,0,0.2,0,0.2-0.2v-3.3c0-0.1,0-0.2-0.2-0.2h-1.7c-0.1,0-0.2,0-0.2,0.2V27
				c0,0.1,0,0.2,0.2,0.2H141.9z"/>
			<path class="st1" d="M147.4,22.5h3.9v1.1h-2.7v1.2h2.2v1.1h-2.2v2.4h-1.2V22.5z"/>
			<path class="st1" d="M161.2,23.5h-1.6v-1.1h4.3v1.1h-1.6v4.7h-1.2V23.5z"/>
			<path class="st1" d="M167.8,22.5h1.2v2.3h2v-2.3h1.2v5.8H171v-2.4h-2v2.4h-1.2V22.5z"/>
			<path class="st1" d="M176.5,22.5h3.9v1.1h-2.7v1.2h2.2v1.1h-2.2v1.3h2.7v1.1h-3.9V22.5z"/>
		</g>
		<polygon class="st0" points="132.7,75.9 141.7,75.9 137.2,80.5 		"/>
	</g>
</g>
</svg>
