<?xml version="1.0" encoding="utf-8"?>
<!-- Generator: Adobe Illustrator 24.0.3, SVG Export Plug-In . SVG Version: 6.00 Build 0)  -->
<svg version="1.1" id="Layer_1" xmlns="http://www.w3.org/2000/svg" xmlns:xlink="http://www.w3.org/1999/xlink" x="0px" y="0px"
	 viewBox="0 0 348.7 474.3" style="enable-background:new 0 0 348.7 474.3;" xml:space="preserve">
<style type="text/css">
	.st0{fill:#B29A5C;}
</style>
<g>
	<path class="st0" d="M95.8,36.1V95H38.3v19.4h-9.9V36.1H95.8z M38.3,45.6v40h47.6v-40H38.3z"/>
	<path class="st0" d="M168.3,116.1c-22.7,0-42.3-16.7-42.3-40.8c0-24.1,19.5-40.8,42.3-40.8s42.3,16.6,42.3,40.8
		C210.5,99.4,191,116.1,168.3,116.1z M136.2,75.3c0,18.5,15,31.1,32.1,31.1s32.1-12.7,32.1-31.1c0-18.6-14.9-31.1-32.1-31.1
		C151.1,44.2,136.2,56.7,136.2,75.3z M183.2,75.3c0,8.4-6.9,14.8-14.9,14.8c-8,0-14.9-6.4-14.9-14.8c0-8.4,7-14.8,15-14.8
		C176.4,60.5,183.2,66.9,183.2,75.3z"/>
	<path class="st0" d="M274,77.2l-28.6,39.6V36.1h58.4l-23.2,32.1l28.9,46.2h-12.2L274,77.2z M285.8,45.8h-30.6v42.2L285.8,45.8z"/>
	<path class="st0" d="M64.9,151.3H54.4v68.7h-9.9v-68.7H28.4v-9.7h62.4v9.7H74.7v68.7h-9.9V151.3z"/>
	<path class="st0" d="M150.7,195.8v24.1h-9.9v-78.3h54.9v9.7h-45.1v13.4h45.1v9.1h-45.1v12.9h45.1v9.1H150.7z"/>
	<path class="st0" d="M277.4,221.5c-22.7,0-42.3-16.7-42.3-40.8c0-24.1,19.5-40.8,42.3-40.8s42.3,16.6,42.3,40.8
		C319.6,204.9,300.1,221.5,277.4,221.5z M245.3,180.8c0,18.5,15,31.1,32.1,31.1c17.1,0,32.1-12.7,32.1-31.1
		c0-18.6-14.9-31.1-32.1-31.1S245.3,162.2,245.3,180.8z"/>
	<path class="st0" d="M28.4,327.4v-9.7h14.7v-42.4H28.5v-9.7h14.6v-7H28.5v-9.7H53v68.7h35.2v-27.7H98v37.3H28.4z"/>
	<path class="st0" d="M148.3,327.4v-9.8h15v-15.3c-5.7-1.9-10-7-10-14.1c0-7.1,4.2-12.1,10-14.1v-15.4h-15v-9.7h39.9v9.7h-15v15.4
		c5.8,1.8,10,6.9,10,14.1c0,7.1-4.3,12.1-10,14.1v15.3h15v9.8H148.3z M162.7,288.3c0,3.3,2.3,5.6,5.6,5.6c3.3,0,5.6-2.3,5.6-5.6
		c0-3.3-2.3-5.6-5.5-5.6C164.9,282.7,162.7,284.9,162.7,288.3z"/>
	<path class="st0" d="M235.1,288.3c0-24.2,19.5-40.8,42.3-40.8c22.7,0,42.3,16.5,42.3,40.8c0,24.1-19.5,40.8-42.3,40.8
		C254.6,329,235.1,312.5,235.1,288.3z M245.3,288.3c0,18.5,15,31.1,32.1,31.1c17.1,0,32.1-12.7,32.1-31.1
		c0-18.6-14.9-31.1-32.1-31.1C260.2,257.1,245.3,269.7,245.3,288.3z M297.9,288.3c0,12-9.4,20.4-20.5,20.4c-11,0-20.5-8.4-20.5-20.4
		s9.3-20.4,20.5-20.4C288.5,267.9,297.9,276.2,297.9,288.3z M266.9,288.3c0,6.4,4.8,10.5,10.5,10.5c5.7,0,10.5-4.1,10.5-10.5
		c0-6.4-4.8-10.5-10.5-10.5C271.7,277.7,266.9,281.8,266.9,288.3z"/>
	<path class="st0" d="M28.4,355.6h29c23.3,0,41.6,16.1,41.6,39c0,23.1-18.1,39.3-41.2,39.3H28.4V355.6z M48.1,424.2v-59h-9.9v59
		H48.1z M58,365.2v59h0.1c16.5,0,30.7-11.9,30.7-29.6c0-17.5-14.1-29.4-30.7-29.4H58z"/>
	<path class="st0" d="M168.1,353.1l38.8,80.8h-77.5L168.1,353.1z M145.3,424.2H191l-22.8-49L145.3,424.2z"/>
	<path class="st0" d="M272.4,433.9v-30.8l-31-47.5h72l-31.1,47.5v30.8H272.4z M295.2,365.2h-35.8l17.9,27L295.2,365.2z"/>
</g>
</svg>
