<?xml version="1.0" encoding="utf-8"?>
<!-- Generator: Adobe Illustrator 24.0.3, SVG Export Plug-In . SVG Version: 6.00 Build 0)  -->
<svg version="1.1" id="Layer_1" xmlns="http://www.w3.org/2000/svg" xmlns:xlink="http://www.w3.org/1999/xlink" x="0px" y="0px"
	 viewBox="0 0 612 792" style="enable-background:new 0 0 612 792;" xml:space="preserve">
<style type="text/css">
	.st0{fill:#FFFFFF;stroke:#FFFFFF;stroke-width:9;stroke-miterlimit:10;}
	.st1{fill:#B29A5C;}
	.st2{fill:none;stroke:#B29A5C;stroke-width:2;stroke-miterlimit:10;}
	.st3{fill:none;stroke:#B29A5C;stroke-width:5;stroke-miterlimit:10;}
	.st4{fill:#FFFFFF;}
	.st5{fill:#B29A5C;stroke:#B29A5C;stroke-width:0.25;stroke-miterlimit:10;}
	.st6{fill:none;stroke:#B29A5C;stroke-width:3;stroke-miterlimit:10;}
	.st7{fill:none;stroke:#FFFFFF;stroke-width:1.602;stroke-miterlimit:10;}
	.st8{fill:none;stroke:#FFFFFF;stroke-width:1.81;stroke-miterlimit:10;}
</style>
<g>
	<path class="st0" d="M506.8,414v-25.6h-0.1V99.3c-5.9,0-11.4-1.7-16-4.7v-9.3h-9.3c-2.9-4.6-4.7-10.1-4.7-16h-45.3V57.7h-59.8
		l6.8-6.6H233.5l6.8,6.6h-59.8v11.6h-45.3c0,5.9-1.7,11.4-4.7,16h-9.3v9.3c-4.6,2.9-10.1,4.7-16,4.7v289.1V414v301.2v25.6h25.6
		h156.4h25.6h168.3h25.5h0.1v-25.6h-0.1L506.8,414L506.8,414z"/>
	<g>
		<rect x="287.3" y="715.2" class="st1" width="25.6" height="25.6"/>
		<rect x="105.2" y="715.2" class="st1" width="25.6" height="25.6"/>
		<rect x="481.2" y="715.2" class="st1" width="25.6" height="25.6"/>
		<rect x="105.2" y="388.4" class="st1" width="25.6" height="25.6"/>
		<rect x="481.2" y="388.4" class="st1" width="25.6" height="25.6"/>
		<rect x="149.8" y="113.9" class="st2" width="8.4" height="8.4"/>
		<rect x="453.7" y="113.9" class="st2" width="8.4" height="8.4"/>
		<g>
			<path class="st1" d="M470.3,76.3c2.8,14.8,14.5,26.5,29.3,29.3v628.2H112.2V105.7c14.8-2.8,26.5-14.5,29.3-29.3H470.3
				 M476.7,69.3H135.2c0,16.5-13.5,30-30,30v641.5h401.4V99.3C490.2,99.3,476.7,85.8,476.7,69.3L476.7,69.3z"/>
		</g>
		
			<rect x="-13.8" y="220.4" transform="matrix(-1.836970e-16 1 -1 -1.836970e-16 711.0433 99.142)" class="st3" width="639.5" height="369.4"/>
		<g>
			<path class="st1" d="M227.7,182.3v58.9h-57.5v19.4h-9.9v-78.3H227.7z M170.2,191.7v40h47.6v-40H170.2z"/>
			<path class="st1" d="M300.2,262.2c-22.7,0-42.3-16.7-42.3-40.8c0-24.1,19.5-40.8,42.3-40.8c22.7,0,42.3,16.6,42.3,40.8
				C342.5,245.6,322.9,262.2,300.2,262.2z M268.1,221.4c0,18.5,15,31.1,32.1,31.1s32.1-12.7,32.1-31.1c0-18.6-14.9-31.1-32.1-31.1
				C283,190.3,268.1,202.9,268.1,221.4z M315.1,221.4c0,8.4-6.9,14.8-14.9,14.8c-8,0-14.9-6.4-14.9-14.8c0-8.4,7-14.8,15-14.8
				C308.3,206.6,315.1,213.1,315.1,221.4z"/>
			<path class="st1" d="M405.9,223.4L377.3,263v-80.7h58.4l-23.2,32.1l28.9,46.2h-12.2L405.9,223.4z M417.7,191.9h-30.6v42.2
				L417.7,191.9z"/>
			<path class="st1" d="M196.8,297.4h-10.5v68.7h-9.9v-68.7h-16.1v-9.7h62.4v9.7h-16.1v68.7h-9.9V297.4z"/>
			<path class="st1" d="M282.6,341.9v24.1h-9.9v-78.3h54.9v9.7h-45.1v13.4h45.1v9.1h-45.1v12.9h45.1v9.1H282.6z"/>
			<path class="st1" d="M409.3,367.7c-22.7,0-42.3-16.7-42.3-40.8c0-24.1,19.5-40.8,42.3-40.8s42.3,16.6,42.3,40.8
				C451.6,351.1,432,367.7,409.3,367.7z M377.2,326.9c0,18.5,15,31.1,32.1,31.1c17.1,0,32.1-12.7,32.1-31.1
				c0-18.6-14.9-31.1-32.1-31.1S377.2,308.4,377.2,326.9z"/>
			<path class="st1" d="M160.3,473.6v-9.7H175v-42.4h-14.6v-9.7H175v-7h-14.6v-9.7h24.5v68.7h35.2v-27.7h9.9v37.3H160.3z"/>
			<path class="st1" d="M280.2,473.6v-9.8h15v-15.3c-5.7-1.9-10-7-10-14.1c0-7.1,4.2-12.1,10-14.1v-15.4h-15v-9.7h39.9v9.7h-15v15.4
				c5.8,1.8,10,6.9,10,14.1c0,7.1-4.3,12.1-10,14.1v15.3h15v9.8H280.2z M294.6,434.4c0,3.3,2.3,5.6,5.6,5.6c3.3,0,5.6-2.3,5.6-5.6
				c0-3.3-2.3-5.6-5.5-5.6C296.9,428.8,294.6,431.1,294.6,434.4z"/>
			<path class="st1" d="M367,434.4c0-24.2,19.5-40.8,42.3-40.8c22.7,0,42.3,16.5,42.3,40.8c0,24.1-19.5,40.8-42.3,40.8
				C386.6,475.2,367,458.7,367,434.4z M377.2,434.4c0,18.5,15,31.1,32.1,31.1c17.1,0,32.1-12.7,32.1-31.1
				c0-18.6-14.9-31.1-32.1-31.1C392.1,403.3,377.2,415.8,377.2,434.4z M429.8,434.4c0,12-9.4,20.4-20.5,20.4
				c-11,0-20.5-8.4-20.5-20.4s9.3-20.4,20.5-20.4C420.5,414,429.8,422.4,429.8,434.4z M398.8,434.4c0,6.4,4.8,10.5,10.5,10.5
				c5.7,0,10.5-4.1,10.5-10.5c0-6.4-4.8-10.5-10.5-10.5C403.6,423.9,398.8,428,398.8,434.4z"/>
			<path class="st1" d="M160.3,501.7h29c23.3,0,41.6,16.1,41.6,39c0,23.1-18.1,39.3-41.2,39.3h-29.4V501.7z M180.1,570.4v-59h-9.9
				v59H180.1z M189.9,511.4v59h0.1c16.5,0,30.7-11.9,30.7-29.6c0-17.5-14.1-29.4-30.7-29.4H189.9z"/>
			<path class="st1" d="M300.1,499.3l38.8,80.8h-77.5L300.1,499.3z M277.2,570.4h45.7l-22.8-49L277.2,570.4z"/>
			<path class="st1" d="M404.3,580v-30.8l-31-47.5h72l-31.1,47.5V580H404.3z M427.2,511.4h-35.8l17.9,27L427.2,511.4z"/>
		</g>
		<g>
			<path class="st1" d="M181.8,646.1h-8.6v-3.6h1.8l-0.7-2.3h-5.9l-0.7,2.3h1.8v3.6h-8.4v-3.6h2.1l4-12H165V627h9.4l5.3,15.6h2.1
				V646.1z M171.4,630.6l-1.9,6.3h3.9L171.4,630.6z"/>
			<path class="st1" d="M203.4,627c2.5,0,3.8,1.2,3.8,3.8v4.7c0,2.5-1.2,3.8-3.8,3.8h-6v3.4h2.8v3.6h-9.7v-3.6h2.4v-12h-2.4V627
				H203.4z M202.7,631.3c0-0.4-0.1-0.5-0.5-0.5h-4.7v4.5h4.7c0.4,0,0.5-0.1,0.5-0.5V631.3z"/>
			<path class="st1" d="M234.3,646.1h-5.4l-3.4-7.3H223v3.7h2.3v3.6h-9.2v-3.6h2.4v-12h-2.4V627H229c2.6,0,3.8,1.2,3.8,3.8v3.9
				c0,2.2-0.9,3.4-2.7,3.7l2,4.3h2.4V646.1z M227.7,635.2c0.4,0,0.5-0.1,0.5-0.5v-3.3c0-0.4-0.1-0.5-0.5-0.5H223v4.4H227.7z"/>
			<path class="st1" d="M250.1,642.6h2.5v3.6h-9.5v-3.6h2.5v-12h-2.5V627h9.5v3.6h-2.5V642.6z"/>
			<path class="st1" d="M261.8,646.1v-3.6h2.4v-12h-2.4V627h9.5v3.6h-2.6v11.8h4.8v-3.8h3.8v7.6H261.8z"/>
			<path class="st1" d="M312.8,646.1h-12.7v-3.6h4.1v-11.1l-4.4,1.6v-3.9l5.4-2.2h3.5v15.5h4V646.1z"/>
			<path class="st1" d="M331,631.4c0-0.4-0.2-0.5-0.5-0.5h-3.6c-0.4,0-0.5,0.1-0.5,0.5v4.7c0.8-1,1.7-2.1,4.6-2.1
				c3.6,0,4.8,1.2,4.8,3.8v4.6c0,2.5-1.2,3.8-3.8,3.8h-6.3c-2.5,0-3.8-1.2-3.8-3.8v-11.6c0-2.6,1.2-3.8,3.8-3.8h6.1
				c2.5,0,3.8,1.2,3.8,3.8v1.9H331V631.4z M326.4,641.7c0,0.4,0.1,0.5,0.5,0.5h3.7c0.4,0,0.5-0.1,0.5-0.5v-3.4
				c0-0.4-0.1-0.5-1.1-0.5c-1.8,0-2.5,0.3-3.7,0.9V641.7z"/>
			<path class="st1" d="M360.4,646.1v-6.5c0-2.4,1.4-3.1,3.9-4.1l4.5-1.7c0.6-0.2,0.7-0.3,0.7-0.8v-1.7c0-0.4-0.1-0.5-0.5-0.5h-3.5
				c-0.4,0-0.5,0.1-0.5,0.5v1.6h-4.4v-2.2c0-2.5,1.3-3.8,3.8-3.8h5.9c2.5,0,3.8,1.3,3.8,3.8v3.1c0,2.4-1.4,3.1-3.9,4.1l-4.5,1.7
				c-0.6,0.2-0.8,0.4-0.8,0.8v1.8h5.5v-2.9h3.8v6.8H360.4z"/>
			<path class="st1" d="M388.3,646.1c-2.5,0-3.8-1.2-3.8-3.8v-11.6c0-2.6,1.2-3.8,3.8-3.8h6.9c2.5,0,3.8,1.2,3.8,3.8v11.6
				c0,2.5-1.2,3.8-3.8,3.8H388.3z M389.1,641.7c0,0.4,0.1,0.5,0.5,0.5h4.3c0.4,0,0.5-0.1,0.5-0.5v-10.2c0-0.4-0.1-0.5-0.5-0.5h-4.3
				c-0.4,0-0.5,0.1-0.5,0.5V641.7z"/>
			<path class="st1" d="M409.3,646.1v-6.5c0-2.4,1.4-3.1,3.9-4.1l4.5-1.7c0.6-0.2,0.7-0.3,0.7-0.8v-1.7c0-0.4-0.1-0.5-0.5-0.5h-3.5
				c-0.4,0-0.5,0.1-0.5,0.5v1.6h-4.4v-2.2c0-2.5,1.3-3.8,3.8-3.8h5.9c2.5,0,3.8,1.3,3.8,3.8v3.1c0,2.4-1.4,3.1-3.9,4.1l-4.5,1.7
				c-0.6,0.2-0.8,0.4-0.8,0.8v1.8h5.5v-2.9h3.8v6.8H409.3z"/>
			<path class="st1" d="M437.3,646.1c-2.5,0-3.8-1.2-3.8-3.8v-11.6c0-2.6,1.2-3.8,3.8-3.8h6.9c2.5,0,3.8,1.2,3.8,3.8v11.6
				c0,2.5-1.2,3.8-3.8,3.8H437.3z M438,641.7c0,0.4,0.1,0.5,0.5,0.5h4.3c0.4,0,0.5-0.1,0.5-0.5v-10.2c0-0.4-0.1-0.5-0.5-0.5h-4.3
				c-0.4,0-0.5,0.1-0.5,0.5V641.7z"/>
		</g>
		<polygon class="st1" points="469.4,106.3 484.2,106.3 469.4,91.6 		"/>
		<polygon class="st1" points="142.2,106.3 127.4,106.3 142.2,91.6 		"/>
		<g>
			<g>
				<path class="st1" d="M161.8,660.2h7.8c1.7,0,2.6,0.8,2.6,2.6v8.1c0,1.7-0.8,2.6-2.6,2.6h-7.8V660.2z M168.4,670.5
					c0.3,0,0.3-0.1,0.3-0.3v-6.6c0-0.3-0.1-0.3-0.3-0.3h-3v7.3H168.4z"/>
				<path class="st1" d="M178.9,660.2h4l3,6.9l3-6.9h4v13.2h-3.4v-7.6l-2.5,6h-2.2l-2.5-6v7.6h-3.4V660.2z"/>
				<path class="st1" d="M206.7,670.7h-3.9l-0.7,2.7h-3.6l4-13.2h4.7l4,13.2h-3.8L206.7,670.7z M206,667.9l-1.2-4.8l-1.2,4.8H206z"
					/>
				<path class="st1" d="M216.7,670.8v-8.1c0-1.7,0.9-2.6,2.6-2.6h5c1.7,0,2.5,0.8,2.5,2.6v2.5h-3.5v-1.8c0-0.3-0.1-0.3-0.3-0.3
					h-2.4c-0.3,0-0.3,0.1-0.3,0.3v6.6c0,0.3,0.1,0.3,0.3,0.3h2.4c0.3,0,0.3-0.1,0.3-0.3v-1.8h3.5v2.5c0,1.7-0.8,2.6-2.6,2.6h-5
					C217.5,673.4,216.7,672.6,216.7,670.8z"/>
				<path class="st1" d="M233,670.8v-8.1c0-1.7,0.9-2.6,2.6-2.6h5c1.7,0,2.5,0.8,2.5,2.6v2.5h-3.5v-1.8c0-0.3-0.1-0.3-0.3-0.3h-2.4
					c-0.3,0-0.3,0.1-0.3,0.3v6.6c0,0.3,0.1,0.3,0.3,0.3h2.4c0.3,0,0.3-0.1,0.3-0.3v-1.8h3.5v2.5c0,1.7-0.8,2.6-2.6,2.6h-5
					C233.8,673.4,233,672.6,233,670.8z"/>
				<path class="st1" d="M258.6,660.2h7.7c1.7,0,2.6,0.8,2.6,2.6v4c0,1.7-0.8,2.6-2.6,2.6h-4.2v4.1h-3.5V660.2z M265,666.4
					c0.3,0,0.3-0.1,0.3-0.3v-2.6c0-0.3-0.1-0.3-0.3-0.3h-2.8v3.3H265z"/>
				<path class="st1" d="M274.9,670.8v-8.1c0-1.7,0.8-2.6,2.6-2.6h5.3c1.7,0,2.6,0.8,2.6,2.6v8.1c0,1.7-0.8,2.6-2.6,2.6h-5.3
					C275.7,673.4,274.9,672.6,274.9,670.8z M281.4,670.5c0.3,0,0.3-0.1,0.3-0.3v-6.6c0-0.3-0.1-0.3-0.3-0.3h-2.7
					c-0.3,0-0.3,0.1-0.3,0.3v6.6c0,0.3,0.1,0.3,0.3,0.3H281.4z"/>
				<path class="st1" d="M302.8,673.4h-3.6L297,669h-1.5v4.4H292v-13.2h7.7c1.7,0,2.6,0.8,2.6,2.6v3.4c0,1.5-0.6,2.3-1.8,2.5
					L302.8,673.4z M298.4,666.2c0.3,0,0.3-0.1,0.3-0.3v-2.5c0-0.3-0.1-0.3-0.3-0.3h-2.9v3.1H298.4z"/>
				<path class="st1" d="M311.3,663.2H308v-3h10.1v3h-3.3v10.2h-3.5V663.2z"/>
				<path class="st1" d="M324.2,660.2h9.3v2.9h-5.7v2.3h4.5v2.9h-4.5v5.1h-3.5V660.2z"/>
				<path class="st1" d="M339.4,670.8v-8.1c0-1.7,0.8-2.6,2.6-2.6h5.3c1.7,0,2.6,0.8,2.6,2.6v8.1c0,1.7-0.8,2.6-2.6,2.6H342
					C340.2,673.4,339.4,672.6,339.4,670.8z M345.9,670.5c0.3,0,0.3-0.1,0.3-0.3v-6.6c0-0.3-0.1-0.3-0.3-0.3h-2.7
					c-0.3,0-0.3,0.1-0.3,0.3v6.6c0,0.3,0.1,0.3,0.3,0.3H345.9z"/>
				<path class="st1" d="M356.5,660.2h3.5v10.2h5.3v3h-8.8V660.2z"/>
				<path class="st1" d="M371.4,660.2h3.5v13.2h-3.5V660.2z"/>
				<path class="st1" d="M381.6,670.8v-8.1c0-1.7,0.8-2.6,2.6-2.6h5.3c1.7,0,2.6,0.8,2.6,2.6v8.1c0,1.7-0.8,2.6-2.6,2.6h-5.3
					C382.4,673.4,381.6,672.6,381.6,670.8z M388.1,670.5c0.3,0,0.3-0.1,0.3-0.3v-6.6c0-0.3-0.1-0.3-0.3-0.3h-2.7
					c-0.3,0-0.3,0.1-0.3,0.3v6.6c0,0.3,0.1,0.3,0.3,0.3H388.1z"/>
				<path class="st1" d="M407.8,660.2h7.8c1.7,0,2.6,0.8,2.6,2.6v8.1c0,1.7-0.8,2.6-2.6,2.6h-7.8V660.2z M414.3,670.5
					c0.3,0,0.3-0.1,0.3-0.3v-6.6c0-0.3-0.1-0.3-0.3-0.3h-3v7.3H414.3z"/>
				<path class="st1" d="M431.9,670.7H428l-0.7,2.7h-3.6l4-13.2h4.7l4,13.2h-3.8L431.9,670.7z M431.2,667.9l-1.2-4.8l-1.2,4.8H431.2
					z"/>
				<path class="st1" d="M445.2,669.3l-4.2-9.1h3.8l2.2,5.6l2.1-5.6h3.8l-4.2,9.1v4.1h-3.5V669.3z"/>
			</g>
		</g>
		<polygon class="st2" points="130.7,716.1 130.7,113.9 149.8,113.9 149.8,94.9 462.1,94.9 462.1,113.9 481.2,113.9 481.2,707.1 
			481.1,716.1 		"/>
		<rect x="180.6" y="57.7" class="st4" width="250.8" height="73.2"/>
		<g>
			<g>
				<path class="st1" d="M247.5,96.1V82.5l-6.7,8.8l-6.7-8.8v13.6h-2.6V75.2l9.3,12.2l9.3-12.2v20.9H247.5z"/>
				<path class="st1" d="M263.6,81.1l-7.1,15.1h-2.8l9.9-20.9l9.9,20.9h-2.8L263.6,81.1z"/>
				<path class="st1" d="M286.8,96.6c-6.3,0-11-4.5-11-10.6c0-6.1,4.6-10.6,11-10.6c3.1,0,5.7,1,7.6,2.8l-1.7,1.9
					c-1.5-1.4-3.5-2.2-6-2.2c-4.5,0-7.7,2.7-8.2,6.9h16v8.8C292.7,95.5,290,96.6,286.8,96.6z M292.1,92.4v-5.1h-13.5
					c0.6,4.1,3.8,6.7,8.2,6.7C288.9,94.1,290.7,93.4,292.1,92.4z"/>
				<path class="st1" d="M300.3,96.1v-2.5h3.9v-4c-1.5-0.5-2.6-1.8-2.6-3.6s1.1-3.1,2.6-3.6v-4h-3.9v-2.5h10.3v2.5h-3.9v4
					c1.5,0.5,2.6,1.8,2.6,3.6c0,1.8-1.1,3.1-2.6,3.6v4h3.9v2.5H300.3z M304,86c0,0.9,0.6,1.4,1.4,1.4c0.9,0,1.4-0.6,1.4-1.4
					c0-0.9-0.6-1.4-1.4-1.4C304.6,84.5,304,85.1,304,86z"/>
				<path class="st1" d="M215.9,96.1v-2.5h3.9V78.3h-3.9v-2.5h10.3v2.5h-3.9v15.3h3.9v2.5H215.9z"/>
				<path class="st1" d="M385.7,96.1v-2.5h3.9V78.3h-3.9v-2.5H396v2.5h-3.9v15.3h3.9v2.5H385.7z"/>
				<path class="st1" d="M322,86.4v9.7h-2.6V75.3l14,10.2v-9.7h2.6v20.9L322,86.4z M333.5,88.6L322,80.2v3.1l11.5,8.3V88.6z"/>
				<path class="st1" d="M352.1,81.1l-7.1,15.1h-2.8l9.9-20.9l9.9,20.9h-2.8L352.1,81.1z"/>
				<path class="st1" d="M373,83.9v12.3h-2.6V83.9H364v-2.5h6.4v-3.1H364v-2.5h15.4v2.5H373v3.1h6.4v2.5H373z"/>
			</g>
			<g>
				<g>
					<g>
						<polygon class="st1" points="409.5,63.8 419.8,63.8 414.7,68.9 						"/>
						<polygon class="st1" points="412.3,69.5 412.6,69.1 411.3,67.7 410.9,68.1 410.9,68.9 411.5,69.5 						"/>
						<polygon class="st1" points="405.9,63.9 405.9,69.5 415.1,78.7 423.6,70.3 423.6,63.8 422,63.8 418.7,67.1 419.4,67.7 
							419.4,69.3 418.3,70.4 416.7,70.4 416.1,69.7 414.7,71.1 413.3,69.7 412.6,70.4 411.1,70.4 410,69.3 410,67.7 410.7,67.1 
							407.4,63.9 						"/>
						<polygon class="st1" points="417.9,69.5 418.5,68.9 418.5,68.1 418.1,67.7 416.7,69.1 417.1,69.5 						"/>
						<polygon class="st1" points="405.9,72.1 405.9,80.1 412.1,85.9 412,101.3 423.5,89.7 423.6,72.9 415.1,81.3 						"/>
						<polygon class="st1" points="405.8,83.1 405.8,107.6 408.1,105.2 408.1,90.2 409,91.1 409,104.3 410.3,103 410.3,87.2 						
							"/>
					</g>
					<polygon class="st1" points="426.6,63.8 423.6,66.7 423.6,63.8 					"/>
					<polygon class="st1" points="402.8,63.9 405.9,66.8 405.9,63.9 					"/>
				</g>
				<g>
					<g>
						<polygon class="st1" points="197.2,68.9 192.1,63.8 202.4,63.8 						"/>
						<polygon class="st1" points="199.6,69.5 199.3,69.1 200.6,67.7 201,68.1 201,68.9 200.4,69.5 						"/>
						<polygon class="st1" points="206,63.9 206,69.5 196.8,78.7 188.3,70.3 188.3,63.8 189.9,63.8 193.2,67.1 192.5,67.7 
							192.5,69.3 193.6,70.4 195.2,70.4 195.8,69.7 197.2,71.1 198.6,69.7 199.3,70.4 200.8,70.4 201.9,69.3 201.9,67.7 201.2,67.1 
							204.5,63.9 						"/>
						<polygon class="st1" points="194.8,69.5 195.2,69.1 193.8,67.7 193.4,68.1 193.4,68.9 194,69.5 						"/>
						<polygon class="st1" points="196.8,81.3 188.3,72.9 188.4,89.7 199.9,101.3 199.8,85.9 206,80.1 206,72.1 						"/>
						<polygon class="st1" points="201.6,87.2 201.6,103 202.9,104.3 202.9,91.1 203.8,90.2 203.8,105.2 206.1,107.6 206.1,83.1 
													"/>
					</g>
					<polygon class="st1" points="185.3,63.8 188.3,66.7 188.3,63.8 					"/>
					<polygon class="st1" points="209.1,63.9 206,66.8 206,63.9 					"/>
				</g>
			</g>
			<g>
				<rect x="217.7" y="66.1" class="st1" width="176.4" height="1.3"/>
				<rect x="215.3" y="62.7" class="st1" width="181.3" height="1.3"/>
				<polygon class="st1" points="394.1,103.4 394.1,104.8 322.3,104.8 306,121.6 289.6,104.8 217.8,104.8 217.8,103.4 290.8,103.4 
					306,119.1 321.1,103.4 				"/>
				<rect x="212.9" y="107.1" class="st1" width="186.2" height="1.3"/>
				<polygon class="st1" points="378.4,51.2 362.8,66.1 249.1,66.1 233.5,51.2 				"/>
				<g>
					<path class="st4" d="M261.2,62.2v-3.5c0-0.8,0.4-1.2,1.2-1.2h2.1c0.8,0,1.2,0.4,1.2,1.2v3.5c0,0.8-0.4,1.2-1.2,1.2h-2.1
						C261.5,63.3,261.2,62.9,261.2,62.2z M264.2,62.2c0.1,0,0.2,0,0.2-0.2v-3.3c0-0.1,0-0.2-0.2-0.2h-1.7c-0.1,0-0.2,0-0.2,0.2v3.3
						c0,0.1,0,0.2,0.2,0.2H264.2z"/>
					<path class="st4" d="M274.1,63.3h-1.3l-1-2h-1v2h-1.2v-5.8h3c0.8,0,1.2,0.4,1.2,1.2v1.4c0,0.7-0.3,1-0.8,1.1L274.1,63.3z
						 M272.6,60.2c0.1,0,0.2,0,0.2-0.2v-1.3c0-0.1,0-0.2-0.2-0.2h-1.7v1.6H272.6z"/>
					<path class="st4" d="M278.1,57.5h3.2c0.8,0,1.2,0.4,1.2,1.2v3.5c0,0.8-0.4,1.2-1.2,1.2h-3.2V57.5z M281,62.2
						c0.1,0,0.2,0,0.2-0.2v-3.3c0-0.1,0-0.2-0.2-0.2h-1.8v3.6H281z"/>
					<path class="st4" d="M286.5,57.5h3.9v1.1h-2.7v1.2h2.2v1.1h-2.2v1.3h2.7v1.1h-3.9V57.5z"/>
					<path class="st4" d="M298.8,63.3h-1.3l-1-2h-1v2h-1.2v-5.8h3c0.8,0,1.2,0.4,1.2,1.2v1.4c0,0.7-0.3,1-0.8,1.1L298.8,63.3z
						 M297.3,60.2c0.1,0,0.2,0,0.2-0.2v-1.3c0-0.1,0-0.2-0.2-0.2h-1.7v1.6H297.3z"/>
					<path class="st4" d="M307.6,62.2v-3.5c0-0.8,0.4-1.2,1.2-1.2h2.1c0.8,0,1.2,0.4,1.2,1.2v3.5c0,0.8-0.4,1.2-1.2,1.2h-2.1
						C308,63.3,307.6,62.9,307.6,62.2z M310.7,62.2c0.1,0,0.2,0,0.2-0.2v-3.3c0-0.1,0-0.2-0.2-0.2h-1.7c-0.1,0-0.2,0-0.2,0.2v3.3
						c0,0.1,0,0.2,0.2,0.2H310.7z"/>
					<path class="st4" d="M316.2,57.5h3.9v1.1h-2.7v1.2h2.2v1.1h-2.2v2.4h-1.2V57.5z"/>
					<path class="st4" d="M330,58.6h-1.6v-1.1h4.3v1.1h-1.6v4.7H330V58.6z"/>
					<path class="st4" d="M336.6,57.5h1.2v2.3h2v-2.3h1.2v5.8h-1.2v-2.4h-2v2.4h-1.2V57.5z"/>
					<path class="st4" d="M345.3,57.5h3.9v1.1h-2.7v1.2h2.2v1.1h-2.2v1.3h2.7v1.1h-3.9V57.5z"/>
				</g>
				<polygon class="st1" points="301.5,110.9 310.4,110.9 305.9,115.6 				"/>
			</g>
		</g>
		<line class="st2" x1="434.9" y1="138.6" x2="357.1" y2="138.6"/>
		<line class="st2" x1="250.1" y1="138.6" x2="172.3" y2="138.6"/>
		<g>
			<g>
				<path class="st5" d="M277.9,136.7l-0.9,0.9l-0.6,0.6c-1.5,1.5-2.8,2.9-4,3.9c-1.2,1.1-2.5,2-3.9,2.8c-1.5,0.8-3,1.3-4.6,1.4
					c-0.2,0-0.4,0.1-0.6,0.1c-0.5,0-0.9-0.3-0.9-0.7v0c0-0.4,0.2-0.7,0.6-0.7c0.1,0,0.1,0,0.2,0v0h0.2c1-0.2,1.7-0.6,2.3-1.4
					c0.6-0.8,0.9-1.8,0.8-2.9v0v-1.8h-3.3c-0.7,0-1.1-0.3-1.1-0.7c0-0.2,0.1-0.5,0.3-0.8l3.6-4.8c0.5-0.7,1-1.1,1.2-1.1
					c0.4,0,0.6,0.6,0.6,1.8v4.4h1.5c1.7,0,2.8-1.3,2.8-3.2c0-2.1-1.1-3.5-2.8-3.5h-2.3h0h0h-1.9c-0.2,0-0.3,0.1-0.5,0.2l-1.3,1.6
					c-0.2,0.2-0.3,0.3-0.5,0.3c-0.1,0-0.2,0-0.3-0.1c-0.3-0.1-0.4-0.3-0.4-0.6c0-0.2,0.1-0.3,0.2-0.5l1.4-1.9c0.2-0.3,0.6-0.4,1-0.4
					h4.7c2.5,0,4.1,2,4.1,4.9c0,2.7-1.7,4.6-4.1,4.6h-1.5v1.8v0v0c0,1.3-0.3,2.4-0.7,3.3c1.1-0.5,2.2-1.2,3.3-2.1
					c1.1-0.9,2.1-1.7,3-2.6c0.9-0.9,2-2,3.1-3.2l0.4-0.4c0.1-0.1,0.3-0.2,0.5-0.2c0.3,0,0.6,0.3,0.6,0.6
					C278.1,136.4,278,136.6,277.9,136.7z M266.5,137.5v-3.5l-2.4,3.5H266.5z"/>
				<path class="st5" d="M288,136.7l-4.6,4.6c-0.2,0.2-0.3,0.2-0.4,0.2c-0.3,0-0.6-0.3-0.8-1c-0.2-0.6-0.3-1.3-0.3-2
					c0-1.4,0.4-2.9,1.1-4.1h-3h-0.1c-0.4,0.5-0.7,0.9-1.2,1.3c-0.1,0.1-0.4,0.5-1,1.1c-0.2,0.2-0.3,0.3-0.6,0.3
					c-0.3,0-0.6-0.3-0.6-0.6c0-0.4,0.2-0.6,0.8-1.2l0.3-0.3c0.3-0.3,0.6-0.6,0.8-0.9c-0.7-0.4-1.2-1.1-1.2-1.9
					c0-0.8,0.7-1.8,1.9-1.8c1.2,0,1.8,0.8,1.8,1.8c0,0.3-0.1,0.6-0.2,0.9h3.7c0.4,0,0.6,0.2,0.6,0.5c0,0.3-0.1,0.5-0.3,0.6
					c-1,1-1.6,2.7-1.6,4.2c0,0.3,0,0.6,0.1,1l3.8-3.8c0.1-0.1,0.3-0.2,0.5-0.2c0.3,0,0.6,0.3,0.6,0.6
					C288.2,136.4,288.2,136.6,288,136.7z M279.7,132.2c0-0.3-0.2-0.6-0.5-0.6c-0.3,0-0.5,0.3-0.5,0.6c0,0.3,0.2,0.6,0.6,0.8
					C279.6,132.7,279.7,132.4,279.7,132.2z"/>
				<path class="st5" d="M298.8,136.7l-1.5,1.5c-0.8,0.8-1.8,1.6-2.9,2.3c-1.1,0.7-2.2,1.1-3.2,1.1c-1.7,0-2.7-0.8-2.7-2.3v-3
					l-0.6,0.6c-0.2,0.2-0.3,0.3-0.6,0.3c-0.3,0-0.6-0.3-0.6-0.6c0-0.2,0.1-0.5,0.4-0.8l0,0l0.3-0.3l1.6-1.6l0.3-0.3
					c0.4-0.4,1-0.6,1.6-0.6h0h0h0h0h0h0h3.1c1,0,1.6,0.6,1.6,1.4c0,0.5-0.3,1-0.8,1.3l-5.3,3.3c0,0.8,0.2,1.4,1.3,1.4
					c0.9,0,1.8-0.3,2.8-1c1-0.7,2-1.5,2.8-2.3l1.2-1.2c0.1-0.1,0.3-0.2,0.5-0.2c0.3,0,0.6,0.3,0.6,0.6
					C299,136.4,298.9,136.6,298.8,136.7z M289.8,137.2l4.6-3h-3.3c-0.8,0-1.4,0.6-1.4,1.4V137.2z"/>
				<path class="st5" d="M308.9,136.7l-0.9,0.9l-3,2.8c-0.5,0.6-1.3,0.9-2.5,0.9h-3.6c-0.5,0-0.8-0.3-0.8-0.7c0-0.3,0.1-0.6,0.4-0.9
					l2.3-2.3c0.1-0.1,0.3-0.2,0.5-0.2c0.2,0,0.4,0.1,0.5,0.2c0.1,0.1,0.2,0.3,0.2,0.5c0,0.2-0.1,0.3-0.2,0.5l-1.6,1.6h2.3
					c1.1,0,1.6-0.4,1.6-1.1c0-0.3-0.1-0.7-0.3-1.1l-2.3-3.8l-2.9,2.9c-0.2,0.2-0.3,0.3-0.6,0.3c-0.3,0-0.6-0.3-0.6-0.6
					c0-0.2,0.1-0.5,0.4-0.8l0,0l0.3-0.3l3.6-3.6c0.1-0.1,0.3-0.2,0.5-0.2c0.2,0,0.4,0.1,0.5,0.2c0.1,0.1,0.2,0.3,0.2,0.5
					c0,0.2-0.1,0.4-0.2,0.5l-0.3,0.2l2.4,4.1c0.2,0.4,0.4,0.9,0.5,1.3l2.6-2.6c0.1-0.1,0.3-0.2,0.5-0.2c0.3,0,0.6,0.3,0.6,0.6
					C309.1,136.4,309.1,136.6,308.9,136.7z"/>
				<path class="st5" d="M319.7,136.7l-1.5,1.5c-0.8,0.8-1.8,1.6-2.9,2.3c-1.1,0.7-2.2,1.1-3.2,1.1c-1.7,0-2.7-0.8-2.7-2.3v-3
					l-0.6,0.6c-0.2,0.2-0.3,0.3-0.6,0.3c-0.3,0-0.6-0.3-0.6-0.6c0-0.2,0.1-0.5,0.4-0.8l0,0l0.3-0.3l1.6-1.6l0.3-0.3
					c0.4-0.4,1-0.6,1.6-0.6h0h0h0h0h0h0h3.1c1,0,1.6,0.6,1.6,1.4c0,0.5-0.3,1-0.8,1.3l-5.3,3.3c0,0.8,0.2,1.4,1.3,1.4
					c0.8,0,1.8-0.3,2.8-1c1-0.7,2-1.5,2.8-2.3l1.2-1.2c0.1-0.1,0.3-0.2,0.5-0.2c0.3,0,0.6,0.3,0.6,0.6
					C319.9,136.4,319.8,136.6,319.7,136.7z M310.7,137.2l4.6-3h-3.3c-0.8,0-1.4,0.6-1.4,1.4V137.2z"/>
				<path class="st5" d="M333.9,136.7l-4.5,4.5c-0.1,0.1-0.2,0.2-0.4,0.2c-0.2,0-0.4-0.2-0.4-0.4v-6.4l-5.8,5.4v0.8
					c0,0.4-0.3,0.7-0.7,0.7c-0.4,0-0.7-0.3-0.7-0.7v-5.8l-2,2c-0.2,0.2-0.3,0.3-0.6,0.3c-0.3,0-0.6-0.3-0.6-0.6
					c0-0.2,0.1-0.5,0.4-0.8l0,0l0.3-0.3l2-2c0.2-0.2,0.5-0.4,0.8-0.4c0.1,0,0.2,0,0.2,0h0h0c0.4,0.1,0.6,0.3,0.6,0.7v4.5l5.4-5
					c0.2-0.2,0.4-0.2,0.6-0.2c0.6,0,1.1,0.4,1.1,1v5l3-3c0.1-0.1,0.3-0.2,0.5-0.2c0.3,0,0.6,0.3,0.6,0.6
					C334.1,136.4,334,136.6,333.9,136.7z"/>
				<path class="st5" d="M342.3,136.8l-3.8,3.9c-0.5,0.5-1,0.7-1.5,0.7c-1,0-1.8-0.9-1.8-2v-6.5h-1.4c-0.4,0-0.7-0.3-0.7-0.7
					c0-0.4,0.3-0.7,0.7-0.7h1.4v-1.4c0-0.5,0.2-0.7,0.7-0.7s0.7,0.2,0.7,0.7v1.4h3.3c0.5,0,0.7,0.2,0.7,0.7s-0.2,0.7-0.7,0.7h-3.3
					v6.5c0,0.4,0.2,0.6,0.5,0.6c0.2,0,0.5-0.1,0.7-0.4l3.8-3.9c0.1-0.1,0.3-0.2,0.4-0.2c0.2,0,0.4,0.1,0.5,0.3
					c0.1,0.1,0.1,0.2,0.1,0.4C342.6,136.4,342.5,136.6,342.3,136.8z"/>
				<path class="st5" d="M346.3,141.3h-3.6c-0.5,0-0.8-0.3-0.8-0.7c0-0.3,0.1-0.6,0.4-0.9l2.3-2.1c0.1-0.1,0.3-0.2,0.5-0.2
					c0.2,0,0.4,0.1,0.5,0.2c0.1,0.1,0.2,0.3,0.2,0.5s-0.1,0.4-0.2,0.5L344,140h2.3c1.1,0,1.6-0.4,1.6-1.1c0-0.3-0.1-0.7-0.3-1.1
					l-2.3-3.8l-2.9,2.9c-0.2,0.2-0.3,0.3-0.6,0.3c-0.3,0-0.6-0.3-0.6-0.6c0-0.2,0.1-0.5,0.4-0.8l0,0l0.3-0.3l3.6-3.6
					c0.1-0.1,0.3-0.2,0.5-0.2c0.2,0,0.4,0.1,0.5,0.2s0.2,0.3,0.2,0.5c0,0.2-0.1,0.4-0.2,0.5l-0.3,0.2l2.4,4.1
					c0.4,0.6,0.5,1.2,0.5,1.9C349.3,140.3,348.4,141.3,346.3,141.3z"/>
			</g>
		</g>
		<line class="st6" x1="130.8" y1="380.4" x2="105.2" y2="380.4"/>
		<line class="st6" x1="130.8" y1="422.1" x2="105.2" y2="422.1"/>
		<g>
			<polygon class="st4" points="485.8,412.1 495.5,412.1 495.5,409 485.8,409 			"/>
			<path class="st4" d="M497.2,401l-0.2-0.3c-1.9-2.3-3.1-4.5-3.8-6.2c-0.1-0.3-0.2-0.6-0.3-0.8c-0.1-0.3-0.2-0.5-0.3-0.8
				c-0.4-1.2-0.5-1.8-0.5-1.9l-0.1-0.4h-2.6l-0.1,0.4c0,0-0.1,0.7-0.5,1.9c-0.1,0.2-0.2,0.5-0.3,0.8c-0.1,0.3-0.2,0.5-0.3,0.8
				c-0.7,1.7-1.9,3.8-3.8,6.2l-0.2,0.3l2.9,5l-1.2,2.5h9.7l-1.2-2.5L497.2,401z M492.3,401.8c-0.3,0.7-0.9,1.2-1.7,1.2
				c-1,0-1.8-0.8-1.8-1.8c0-1,0.8-1.8,1.8-1.8c0.8,0,1.4,0.5,1.7,1.2c0.1,0.2,0.1,0.4,0.1,0.6C492.4,401.4,492.4,401.6,492.3,401.8z
				 M488.9,402.7c-0.9-0.5-1.7-1.2-2-1.5c0.3-0.3,1-1.1,2-1.5c-0.4,0.4-0.6,1-0.6,1.5C488.3,401.8,488.5,402.3,488.9,402.7z
				 M492.5,399.7c0.9,0.5,1.7,1.2,2,1.5c-0.3,0.3-1,1.1-2,1.5c0.4-0.4,0.6-0.9,0.6-1.5C493,400.6,492.8,400.1,492.5,399.7z
				 M487.4,407.5l0.7-1.5l-2.8-4.8c2.1-2.6,3.3-5,4-6.8c0.1-0.3,0.2-0.5,0.3-0.8c0.1-0.3,0.2-0.5,0.2-0.7c0.2-0.5,0.3-0.9,0.3-1.1
				h0.1v6.9c0,0,0,0,0,0c-2.3,0.2-4,2.3-4.1,2.4l-0.2,0.2l0.2,0.2c0.1,0.1,2,2.4,4.4,2.4c2.4,0,4.3-2.3,4.4-2.4l0.1-0.2l-0.1-0.2
				c-0.1-0.1-1.8-2.2-4.1-2.4c0,0,0,0,0,0v-6.9h0.1c0.1,0.3,0.2,0.7,0.3,1.1c0.1,0.2,0.2,0.5,0.2,0.7c0.1,0.2,0.2,0.5,0.3,0.8
				c0.7,1.8,1.9,4.2,4,6.8l-2.8,4.8l0.7,1.5H487.4z"/>
			<path class="st4" d="M491.6,400.9c-0.1-0.4-0.5-0.7-0.9-0.7c-0.5,0-0.9,0.4-0.9,0.9c0,0.5,0.4,0.9,0.9,0.9c0.4,0,0.8-0.3,0.9-0.6
				l-0.7-0.3L491.6,400.9z"/>
		</g>
		<g>
			<line class="st7" x1="110.5" y1="395.2" x2="118.1" y2="399.6"/>
			<line class="st7" x1="125.7" y1="395.2" x2="118.1" y2="399.6"/>
			<line class="st7" x1="118.1" y1="408.4" x2="118.1" y2="399.6"/>
			<g>
				<path class="st4" d="M110.4,393.9l-0.9,1.6l-0.9-1.6H110.4 M111.7,393.2h-4.4l2.2,3.8L111.7,393.2L111.7,393.2z"/>
			</g>
			<g>
				<path class="st4" d="M119,409.1l-0.9,1.6l-0.9-1.6H119 M120.3,408.4h-4.4l2.2,3.8L120.3,408.4L120.3,408.4z"/>
			</g>
			<g>
				<path class="st4" d="M127.5,393.9l-0.9,1.6l-0.9-1.6H127.5 M128.8,393.2h-4.4l2.2,3.8L128.8,393.2L128.8,393.2z"/>
			</g>
			<polygon class="st7" points="123.6,402.8 123.6,396.4 118.1,393.3 112.6,396.4 112.6,402.8 118.1,406 			"/>
		</g>
		<g>
			<polygon class="st4" points="111.4,724.5 109.6,724.5 109.6,719.9 114.3,719.9 114.3,721.6 111.4,721.6 			"/>
			<polygon class="st4" points="114.3,736.6 109.6,736.6 109.6,732 111.4,732 111.4,734.9 114.3,734.9 			"/>
			<polygon class="st4" points="126.4,724.5 124.6,724.5 124.6,721.6 121.7,721.6 121.7,719.9 126.4,719.9 			"/>
			<polygon class="st4" points="126.4,736.6 121.7,736.6 121.7,734.9 124.6,734.9 124.6,732 126.4,732 			"/>
			<g>
				<path class="st4" d="M118,722c-3.5,0-6.3,2.8-6.3,6.3s2.8,6.3,6.3,6.3c3.5,0,6.3-2.8,6.3-6.3S121.5,722,118,722z M122.3,725.7
					l-0.8,1.3l-2-3.5C120.7,723.9,121.7,724.7,122.3,725.7z M117.3,732h4.1c-0.9,0.8-2,1.3-3.3,1.3L117.3,732z M116.6,730.7
					l-1.4-2.5l1.4-2.5h2.8l1.4,2.5l-1.4,2.5H116.6z M118.7,724.6h-4.1c0.9-0.8,2-1.3,3.3-1.3L118.7,724.6z M113.7,725.8h1.5l-2,3.5
					c-0.1-0.3-0.1-0.7-0.1-1.1C113,727.4,113.2,726.5,113.7,725.8z M113.7,730.8l0.8-1.3l2,3.5C115.3,732.7,114.3,731.9,113.7,730.8
					z M122.4,730.7h-1.5l2-3.5c0.1,0.3,0.1,0.7,0.1,1.1C123,729.2,122.8,730,122.4,730.7z"/>
			</g>
		</g>
		<line class="st8" x1="495.8" y1="726.8" x2="483.8" y2="726.8"/>
		<polygon class="st4" points="502.8,726.8 495.8,722.7 495.8,730.9 		"/>
		<line class="st8" x1="491.7" y1="722.7" x2="491.7" y2="730.9"/>
		<line class="st8" x1="487.5" y1="722.7" x2="487.5" y2="730.9"/>
		<polygon class="st4" points="306.4,719.2 296.9,734.2 294.6,734.2 304.1,719.2 		"/>
		<polygon class="st4" points="294.1,728.2 292.6,728.2 292.6,720.4 300.4,720.4 300.4,721.9 294.1,721.9 		"/>
		<polygon class="st4" points="307.8,734.2 299.9,734.2 299.9,732.7 306.3,732.7 306.3,726.4 307.8,726.4 		"/>
	</g>
</g>
</svg>
